# xmcd CD database file
#
# Track frame offsets:
#	150
#	17277
#	35837
#
# Disc length: 635 seconds
#
# Revision: 10
# Processed by: cddbd v1.5.2PL0 Copyright (c) Steve Scherf et al.
# Submitted via: CDex 1.70beta2
#
DISCID=19027903
DTITLE=スピッツ - ホタル
DYEAR=2000
DGENRE=JPop
TTITLE0=ホタル
TTITLE1=ムーンライト
TTITLE2=春夏ロケット
EXTD=YEAR: 2000
EXTT0=
EXTT1=
EXTT2=
PLAYORDER=
